<?xml version="1.0" encoding="utf-8"?>
<!-- Generator: Adobe Illustrator 22.1.0, SVG Export Plug-In . SVG Version: 6.00 Build 0)  -->
<svg version="1.1" id="图层_1" xmlns="http://www.w3.org/2000/svg" xmlns:xlink="http://www.w3.org/1999/xlink" x="0px" y="0px"
	 viewBox="0 0 566.9 226.8" style="enable-background:new 0 0 566.9 226.8;" xml:space="preserve">
<style type="text/css">
	.st0{fill:#036EFF;}
</style>
<path class="st0" d="M344.2,184.4h-13.4c-1,0-1.9-0.8-1.9-1.9v-70.8c0-1,0.8-1.9,1.9-1.9s1.9,0.8,1.9,1.9v69h9.6v-69
	c0-1,0.8-1.9,1.9-1.9c1,0,1.9,0.8,1.9,1.9v70.8C346.1,183.5,345.2,184.4,344.2,184.4"/>
<path class="st0" d="M316.2,123.8c0-0.1,0-0.1,0-0.2c-0.7-7.9-7.2-13.8-15.1-13.8c-1,0-1.9,0.8-1.9,1.9c0,1,0.8,1.9,1.9,1.9
	c6,0,10.8,4.4,11.4,10.3l0.1,56.8h-9.7V125v-0.1c0-7.5-5.4-13.8-12.7-15c-1-0.1-24.7-0.2-24.9-0.2c-1,0-1.9,0.8-1.9,1.9v70.8
	c0,1,0.8,1.9,1.9,1.9h13.4c1,0,1.9-0.8,1.9-1.9v-55.6h13.5c1,0,1.9-0.8,1.9-1.9c0-1-0.8-1.9-1.9-1.9h-15.3c-1,0-1.9,0.8-1.9,1.9
	v55.6H267v-67c5.6,0,21,0.1,22.5,0.1c5.6,0.9,9.6,5.6,9.6,11.3v0.1v57.5c0,1,0.8,1.9,1.9,1.9h13.5c0.5,0,1-0.2,1.4-0.6
	c0.3-0.3,0.6-0.8,0.6-1.4L316.2,123.8z"/>
<path class="st0" d="M374.7,31l-32.3-18.8c-2.8-1.6-6.3-1.6-9.2,0L300.8,31c-2.8,1.6-4.6,4.7-4.6,8v37.4c0,3.2,1.7,6.3,4.6,8l8,4.6
	c-0.1,0.4-0.1,0.8-0.1,1.2c0,3.4,2.7,6.1,6.1,6.1s6.1-2.7,6.1-6.1c0-3.4-2.7-6.1-6.1-6.1c-1.6,0-3,0.6-4.1,1.6l-7.9-4.6
	c-1.7-1-2.7-2.8-2.7-4.7V38.9c0-1.9,1-3.8,2.7-4.7l32.3-18.7c1.7-1,3.8-1,5.4,0l32.4,18.7c1.7,1,2.7,2.8,2.7,4.7v37.4
	c0,1.9-1,3.8-2.7,4.7l-32.4,18.7c-0.3,0.2-0.7,0.3-1,0.5V88.4c0-0.2,0-0.4,0-0.6v-6.7c0.1-0.1,0.1-0.1,0.2-0.1l18.6-12.5
	c0.5-0.3,0.8-0.9,0.8-1.6V47.3c2.5-0.8,4.3-3.1,4.3-5.8c0-3.4-2.7-6.1-6.1-6.1c-3.4,0-6.1,2.7-6.1,6.1c0,2.7,1.7,4.9,4.1,5.8v18.7
	l-15.9,10.7V38.9c2.5-0.8,4.3-3.1,4.3-5.8c0-3.4-2.7-6.1-6.1-6.1c-3.4,0-6.1,2.7-6.1,6.1c0,2.7,1.7,5,4.1,5.8v24.8l-10.5-6.1v-9.8
	c2.5-0.8,4.2-3.1,4.2-5.8c0-3.4-2.7-6.1-6.1-6.1s-6.1,2.7-6.1,6.1c0,2.7,1.7,5,4.2,5.8v10.9c0,0.6,0.4,1.3,0.9,1.6l13.3,7.8v16.9
	l-23-13.3V55.2c2.4-0.8,4.2-3.1,4.2-5.8c0-3.4-2.7-6.1-6.1-6.1c-3.4,0-6.1,2.7-6.1,6.1c0,2.7,1.7,5,4.2,5.8v17.4
	c0,0.6,0.4,1.3,1,1.6l25.8,14.9v13.1c0,0.1,0,0.1,0,0.2c0,0.1,0,0.1,0,0.2c0,0.1,0.1,0.1,0.1,0.2s0,0.1,0.1,0.1
	c0,0.1,0.1,0.1,0.1,0.2c0,0.1,0.1,0.1,0.1,0.1c0.1,0.1,0.1,0.1,0.1,0.2l0.1,0.1c0.1,0.1,0.1,0.1,0.2,0.2l0.1,0.1
	c0.1,0.1,0.2,0.1,0.3,0.1c0,0,0.1,0,0.1,0.1c0.1,0.1,0.2,0.1,0.3,0.1h0.1c0.1,0,0.2,0.1,0.3,0.1h0.1l0,0c0,0,0,0,0.1,0l0,0
	c0.1,0,0.1,0,0.2,0c1.6,0,3.2-0.5,4.6-1.2l32.4-18.7c2.8-1.6,4.6-4.7,4.6-8V38.9C379.3,35.6,377.6,32.6,374.7,31 M314.7,87.7
	c1.3,0,2.3,1,2.3,2.3c0,1.3-1,2.3-2.3,2.3s-2.3-1-2.3-2.3C312.3,88.8,313.4,87.7,314.7,87.7 M357.3,39.1c1.3,0,2.3,1,2.3,2.3
	c0,1.3-1,2.3-2.3,2.3s-2.3-1-2.3-2.3C355,40.2,356,39.1,357.3,39.1 M323.2,39.5c1.3,0,2.3,1,2.3,2.3c0,1.3-1,2.3-2.3,2.3
	s-2.3-1-2.3-2.3C320.9,40.6,322,39.5,323.2,39.5 M310.8,47.1c1.3,0,2.3,1,2.3,2.3c0,1.3-1,2.3-2.3,2.3c-1.3,0-2.3-1-2.3-2.3
	C308.5,48.1,309.5,47.1,310.8,47.1 M337.6,30.7c1.3,0,2.3,1,2.3,2.3c0,1.3-1,2.3-2.3,2.3c-1.3,0-2.3-1-2.3-2.3
	C335.2,31.8,336.3,30.7,337.6,30.7"/>
<path class="st0" d="M248.6,167.2h-38.2c-3.9,0-7.1-3.2-7.1-7.1v-25.9c0-3.9,3.2-7.1,7.1-7.1h22.9v11.3h-16.8v-6
	c0-1-0.8-1.9-1.9-1.9c-1,0-1.9,0.8-1.9,1.9v7.8c0,1,0.8,1.9,1.9,1.9h20.6c1,0,1.9-0.8,1.9-1.9v-15.1c0-1-0.8-1.9-1.9-1.9h-24.8
	c-6,0-10.9,4.9-10.9,10.9v25.9c0,6,4.9,10.9,10.9,10.9h36.4v9.6l-34-0.1c-5.8,0-10.6-4.3-11.3-10c-0.1-1-1.1-1.7-2.1-1.6
	c-1,0.1-1.7,1-1.6,2.1c0.9,7.6,7.4,13.4,15.1,13.4l35.9,0.1c1,0,1.9-0.8,1.9-1.9v-13.4C250.5,168.1,249.6,167.2,248.6,167.2"/>
<path class="st0" d="M199.3,125.4c1,0.1,1.9-0.6,2.1-1.7c0.6-5.8,5.5-10.2,11.3-10.2h22.6c5.9,0,10.9,4.6,11.4,10.4v27.8h-32.1
	c-1,0-1.9,0.8-1.9,1.9v8.2c0,1,0.8,1.9,1.9,1.9s1.9-0.8,1.9-1.9v-6.3h32.1c1,0,1.9-0.8,1.9-1.9v-29.8c0-0.1,0-0.1,0-0.1
	c-0.6-7.8-7.2-14-15.1-14h-22.6c-7.8,0-14.2,5.8-15.1,13.5C197.5,124.3,198.3,125.2,199.3,125.4"/>
<path class="st0" d="M169.7,109.8c-1,0-1.9,0.8-1.9,1.9s0.8,1.9,1.9,1.9c6,0,10.8,4.4,11.4,10.3v46.8c-0.6,5.8-5.5,10.1-11.3,10.1
	h-20.5v-53.8h12.5c1,0,1.9-0.8,1.9-1.9c0-1-0.8-1.9-1.9-1.9h-14.4c-1,0-1.9,0.8-1.9,1.9v57.6v27.2h-9.6v-96.3
	c8.7,0,20.3,0.1,21.5,0.1c5.5,0.9,9.5,5.6,9.5,11.3v42.6h-12.5c-1,0-1.9,0.8-1.9,1.9s0.8,1.9,1.9,1.9h14.4c1,0,1.9-0.8,1.9-1.9
	v-44.5c0-7.5-5.4-13.8-12.7-15c-0.6-0.1-8.6-0.1-23.9-0.2l0,0c-0.5,0-1,0.2-1.4,0.6c-0.3,0.3-0.6,0.8-0.6,1.4v100
	c0,1,0.8,1.9,1.9,1.9h13.4c1,0,1.9-0.8,1.9-1.9v-27.2h20.5c7.8,0,14.2-5.8,15.1-13.5c0-0.1,0-0.1,0-0.2v-47c0-0.1,0-0.1,0-0.2
	C184.2,115.7,177.6,109.8,169.7,109.8"/>
<path class="st0" d="M72,106.9c-12.9,0-24.3,8.3-28.3,20.6c-0.3,1,0.2,2.1,1.2,2.4c1,0.3,2.1-0.2,2.4-1.2c3.5-10.7,13.5-18,24.8-18
	c11.9,0,22.3,8,25.2,19.5c0.2,0.8,1,1.4,1.8,1.4h18.4c0.6,0,1.1-0.3,1.4-0.6c0.4-0.4,0.5-1,0.5-1.5c-3.6-23.1-23.9-40.6-47.3-40.6
	s-43.7,17.4-47.3,40.6l0,0c-0.4,2.4-0.6,4.9-0.6,7.3c0,1,0.8,1.9,1.9,1.9h16.2c0.1,1.9,0.4,3.8,0.9,5.6l0,0
	c3.4,13.1,15.3,22.3,28.9,22.3c13.1,0,24.6-8.5,28.5-20.9h14.7c-4.1,20.2-22.3,35.2-43.2,35.2c-21.2,0-39.3-15-43.3-35.8
	c-0.2-1-1.2-1.7-2.2-1.5c-1,0.2-1.7,1.2-1.5,2.2c4.3,22.5,24.1,38.8,47,38.8c23.4,0,43.7-17.4,47.3-40.6c0.1-0.5-0.1-1.1-0.5-1.5
	c-0.4-0.4-0.9-0.6-1.4-0.6H99c-0.8,0-1.6,0.6-1.8,1.4c-3,11.5-13.3,19.5-25.2,19.5s-22.3-8-25.2-19.5l0,0c-0.5-2.1-0.8-4.3-0.8-6.5
	c0-1-0.8-1.9-1.9-1.9H27.9c0.1-1.6,0.2-3.2,0.5-4.9l0,0c3.2-21.3,22-37.3,43.5-37.3c20.8,0,39,14.9,43.2,35.2h-14.7
	C96.6,115.4,85.1,106.9,72,106.9"/>
<g>
	<g>
		<g>
			<path class="st0" d="M448.2,149.4H410c-5.4,0.3-8.3,2.8-8.5,7.8v17.3c0.2,4.5,3,6.9,8.5,7.2h37.8c5.2-0.3,8-2.7,8.2-7.5v-17
				C455.8,152.2,453.2,149.6,448.2,149.4z M446.9,171.5c-0.3,2.1-1.6,3.2-4.1,3.4h-28c-2.5-0.5-3.9-1.6-4.1-3.4v-11.3
				c0.2-2.5,1.6-3.9,4.1-4.1h27.6c2.7,0.3,4.2,1.6,4.4,4.1V171.5z"/>
			<path class="st0" d="M397.4,132.4v-0.8v-8.9c0.2-2.7,1.7-4.2,4.4-4.4h39.9c3-0.2,4.4,1,4.4,3.8v6.9c0,2.3-1.4,3.4-4.1,3.4h-40.6
				v6.8h46.3c5,0,7.5-2.3,7.5-6.8v-13.3c0-5-2.5-7.5-7.5-7.5h-20.2v-5.4H418v5.4h-21.7c-5.4,0-8.2,2.7-8.2,8.2v25.9
				c0,11.8-1.8,23.7-5.4,35.8l8.9,1.7c3.9-12,5.8-23.9,5.8-35.8v-5v-3.1L397.4,132.4L397.4,132.4z"/>
		</g>
		<g>
			<path class="st0" d="M471.2,143.2l9.3,4.8c5.6-3.9,9-9.3,10.9-15.9h16.2v-6.8h-14.8c0.3-1.9,0.5-5.6,0.5-8.2H507v-6.8h-25.6v-4.3
				h-9.6l-0.1,11.1h12.2c0,3.6-0.2,6.4-0.6,8.2h-14v6.8h12.3C480.4,136.2,475.3,141.8,471.2,143.2z"/>
			<path class="st0" d="M492.5,135.3c2.7,4.7,4.3,6.9,6.1,12.1h10c-1.7-4.5-3.9-8.9-6-12.1H492.5z"/>
			<path class="st0" d="M532.1,149.7h-51.8c-5,0.5-7.7,2.8-8.2,7.2v12.9h9.2h2.5h47.2v3c0,2.3-1.5,3.4-4.4,3.4h-41.2
				c-2.7,0-4-1.1-4.1-3.2h-9.2v2.9c0.5,4.3,2.8,6.7,7.2,7.2h52.5c5.4-0.3,8.3-2.6,8.5-7.2v-18.8
				C539.8,152.7,537.1,150.2,532.1,149.7z M531.1,163h-49.8v-2.4c0.2-2.5,1.6-3.9,4.1-4.1h41.2c3,0,4.4,1.4,4.4,4.1L531.1,163
				L531.1,163z"/>
			<path class="st0" d="M536.2,109.1h-17c-4.8,0.3-7.4,2.3-7.8,6.1v24.5c0.5,3.6,2.6,5.7,6.5,6.1h18.4c4.1-0.2,6.3-2.3,6.5-6.1
				v-24.5C542.5,111.7,540.3,109.6,536.2,109.1z M533.4,134.5c0,3-1.4,4.4-4.1,4.4h-4.9c-2.5-0.2-3.8-1.7-3.8-4.4V120
				c0.2-2.5,1.6-3.9,4.1-4.1h4.3c2.7,0.3,4.2,1.6,4.4,4.1V134.5z"/>
		</g>
	</g>
</g>
</svg>
